<svg version="1.1" viewBox="0.0 0.0 960.0 960.0" fill="none" stroke="none" stroke-linecap="square" stroke-miterlimit="10" xmlns:xlink="http://www.w3.org/1999/xlink" xmlns="http://www.w3.org/2000/svg"><clipPath id="g3486abc701a_1_167.0"><path d="m0 0l960.0 0l0 960.0l-960.0 0l0 -960.0z" clip-rule="nonzero"/></clipPath><g clip-path="url(#g3486abc701a_1_167.0)"><path fill="#000000" fill-opacity="0.0" d="m0 0l960.0 0l0 960.0l-960.0 0z" fill-rule="evenodd"/><path fill="#791400" d="m719.9997 720.0l240.0 0l0 240.0l-240.0 0z" fill-rule="evenodd"/><path fill="#a61c00" d="m479.9987 720.0l239.99997 0l0 240.0l-239.99997 0z" fill-rule="evenodd"/><path fill="#f04624" d="m239.99869 720.0l240.0 0l0 240.0l-240.0 0z" fill-rule="evenodd"/><path fill="#ff3c3c" d="m-0.001312336 720.0l240.0 0l0 240.0l-240.0 0z" fill-rule="evenodd"/><path fill="#ff3232" d="m720.0 480.0l240.0 0l0 240.0l-240.0 0z" fill-rule="evenodd"/><path fill="#ff1919" d="m480.0 480.0l240.0 0l0 240.0l-240.0 0z" fill-rule="evenodd"/><path fill="#fa1414" d="m240.0 480.0l240.0 0l0 240.0l-240.0 0z" fill-rule="evenodd"/><path fill="#ff0000" d="m0 480.0l240.0 0l0 240.0l-240.0 0z" fill-rule="evenodd"/><path fill="#eb0000" d="m720.0 240.0l240.0 0l0 240.0l-240.0 0z" fill-rule="evenodd"/><path fill="#d70000" d="m480.0 240.0l240.0 0l0 240.0l-240.0 0z" fill-rule="evenodd"/><path fill="#cc0000" d="m240.0 240.0l240.0 0l0 240.0l-240.0 0z" fill-rule="evenodd"/><path fill="#af0000" d="m0 240.0l240.0 0l0 240.0l-240.0 0z" fill-rule="evenodd"/><path fill="#990000" d="m720.0 0l240.0 0l0 240.0l-240.0 0z" fill-rule="evenodd"/><path fill="#7d0000" d="m480.0 0l240.0 0l0 240.0l-240.0 0z" fill-rule="evenodd"/><path fill="#700000" d="m240.0 0l240.0 0l0 240.0l-240.0 0z" fill-rule="evenodd"/><path fill="#4b0000" d="m0 0l240.0 0l0 240.0l-240.0 0z" fill-rule="evenodd"/></g></svg>